# xmcd
#
# Track frame offsets:
# 150
# 18174
# 34071
# 49224
# 66281
# 88851
# 109720
# 132210
# 153244
# 179016
# 206041
# 222899
# 239172
# 257121
# 271964
# 291932
# 311391
# 327312
#
# Disc length: 4608 seconds
#
# Revision: 0
# Processed by: cddbd v1.5.1PL2 Copyright (c) Steve Scherf et al.
# Submitted via: Audion 3.0.2 (http://www.panic.com/audion/)
#
DISCID=1211fe12
DTITLE=adrien le grand - mix 1
DYEAR=1900
DGENRE=
TTITLE0=a
TTITLE1=z
TTITLE2=e
TTITLE3=r
TTITLE4=t
TTITLE5=y
TTITLE6=u
TTITLE7=i
TTITLE8=o
TTITLE9=p
TTITLE10=q
TTITLE11=s
TTITLE12=d
TTITLE13=f
TTITLE14=g
TTITLE15=h
TTITLE16=j
TTITLE17=k
EXTD=
EXTT0=
EXTT1=
EXTT2=
EXTT3=
EXTT4=
EXTT5=
EXTT6=
EXTT7=
EXTT8=
EXTT9=
EXTT10=
EXTT11=
EXTT12=
EXTT13=
EXTT14=
EXTT15=
EXTT16=
EXTT17=
PLAYORDER=
